<svg width="3770" height="4353" viewBox="0 0 3770 4353" fill="none" xmlns="http://www.w3.org/2000/svg">
<rect width="3770" height="4353" fill="white"/>
<path d="M623.305 3160.39C330.978 3160.39 94 2923.4 94 2631.06V529.326C94 236.987 330.978 0 623.305 0C915.632 0 1152.61 236.987 1152.61 529.326V2631.06C1152.61 2923.4 915.632 3160.39 623.305 3160.39Z" fill="#919191"/>
<path d="M250.326 3029.37C43.6196 2822.65 43.6195 2487.5 250.326 2280.79L1564.38 966.678C1771.09 759.964 2106.23 759.964 2312.93 966.678C2519.64 1173.39 2519.64 1508.54 2312.93 1715.26L998.876 3029.37C792.17 3236.08 457.033 3236.08 250.326 3029.37Z" fill="#7E7E7E"/>
<path d="M1493.99 4197.96C1287.29 3991.25 1287.29 3656.1 1493.99 3449.38L2763.1 2180.23C2969.81 1973.51 3304.95 1973.51 3511.65 2180.23C3718.36 2386.94 3718.36 2722.09 3511.65 2928.8L2242.55 4197.96C2035.84 4404.68 1700.7 4404.68 1493.99 4197.96Z" fill="#605E5E"/>
<path d="M3525.97 2918.35C3319.26 3125.06 2984.13 3125.06 2777.42 2918.35L1558.02 1698.9C1351.31 1492.19 1351.31 1157.04 1558.02 950.321C1764.73 743.607 2099.86 743.607 2306.57 950.321L3525.97 2169.77C3732.68 2376.48 3732.68 2711.63 3525.97 2918.35Z" fill="#D7D7D7"/>
</svg>
