<svg width="3397" height="924" viewBox="0 0 3397 924" fill="none" xmlns="http://www.w3.org/2000/svg">
<path d="M1248.67 761.16C1218.65 761.16 1190.91 755.308 1165.47 743.603C1140.53 731.39 1120.69 714.088 1105.93 691.697L1115.85 671.85V752H1021.96V174.157H1121.96V419.187L1106.69 398.577C1120.94 376.186 1140.28 358.883 1164.71 346.67C1189.13 333.948 1217.38 327.587 1249.44 327.587C1288.62 327.587 1323.99 337.256 1355.54 356.593C1387.09 375.931 1412.03 401.884 1430.35 434.453C1449.17 467.022 1458.59 503.662 1458.59 544.373C1458.59 584.576 1449.43 621.216 1431.11 654.293C1412.79 687.371 1387.85 713.579 1356.3 732.917C1324.75 751.746 1288.87 761.16 1248.67 761.16ZM1237.22 669.56C1260.12 669.56 1280.48 664.217 1298.29 653.53C1316.1 642.843 1329.84 628.086 1339.51 609.257C1349.69 590.428 1354.78 568.8 1354.78 544.373C1354.78 519.947 1349.69 498.573 1339.51 480.253C1329.84 461.424 1316.1 446.667 1298.29 435.98C1280.48 424.784 1260.12 419.187 1237.22 419.187C1215.34 419.187 1195.49 424.53 1177.68 435.217C1160.38 445.903 1146.64 460.916 1136.46 480.253C1126.79 499.082 1121.96 520.456 1121.96 544.373C1121.96 568.8 1126.79 590.428 1136.46 609.257C1146.64 628.086 1160.38 642.843 1177.68 653.53C1195.49 664.217 1215.34 669.56 1237.22 669.56ZM1682.91 761.16C1650.85 761.16 1622.86 754.036 1598.95 739.787C1575.54 725.538 1557.47 705.691 1544.75 680.247C1532.54 654.802 1526.43 625.032 1526.43 590.937V336.747H1626.43V582.54C1626.43 599.842 1629.73 615.109 1636.35 628.34C1643.47 641.062 1653.4 651.24 1666.12 658.873C1679.35 665.998 1694.11 669.56 1710.39 669.56C1726.68 669.56 1741.18 665.998 1753.9 658.873C1766.63 651.24 1776.55 640.808 1783.67 627.577C1790.8 614.346 1794.36 598.57 1794.36 580.25V336.747H1894.36V752H1799.7V670.323L1808.1 684.827C1798.43 710.271 1782.4 729.354 1760.01 742.077C1738.13 754.799 1712.43 761.16 1682.91 761.16ZM2145.32 761.16C2101.05 761.16 2062.37 750.728 2029.29 729.863C1996.72 708.49 1974.33 679.738 1962.12 643.607L2036.93 607.73C2047.61 631.139 2062.37 649.459 2081.2 662.69C2100.54 675.921 2121.91 682.537 2145.32 682.537C2163.64 682.537 2178.14 678.466 2188.83 670.323C2199.52 662.181 2204.86 651.494 2204.86 638.263C2204.86 630.121 2202.57 623.506 2197.99 618.417C2193.92 612.819 2188.07 608.239 2180.43 604.677C2173.31 600.606 2165.42 597.298 2156.77 594.753L2088.83 575.67C2053.72 565.492 2027 549.971 2008.68 529.107C1990.87 508.242 1981.97 483.561 1981.97 455.063C1981.97 429.619 1988.33 407.482 2001.05 388.653C2014.28 369.316 2032.35 354.303 2055.25 343.617C2078.66 332.93 2105.37 327.587 2135.4 327.587C2174.58 327.587 2209.19 337.001 2239.21 355.83C2269.23 374.659 2290.61 401.121 2303.33 435.217L2227 471.093C2219.87 452.264 2207.91 437.252 2191.12 426.057C2174.33 414.861 2155.5 409.263 2134.63 409.263C2117.84 409.263 2104.61 413.08 2094.94 420.713C2085.27 428.347 2080.44 438.27 2080.44 450.483C2080.44 458.117 2082.47 464.732 2086.54 470.33C2090.61 475.928 2096.21 480.508 2103.34 484.07C2110.97 487.632 2119.62 490.94 2129.29 493.993L2195.7 513.84C2229.8 524.018 2256 539.284 2274.32 559.64C2293.15 579.996 2302.57 604.931 2302.57 634.447C2302.57 659.382 2295.95 681.519 2282.72 700.857C2269.49 719.686 2251.17 734.443 2227.76 745.13C2204.35 755.817 2176.87 761.16 2145.32 761.16ZM2568.72 756.58C2521.9 756.58 2485.52 743.858 2459.56 718.413C2434.12 692.46 2421.4 656.074 2421.4 609.257V426.057H2349.64V336.747H2357.28C2377.63 336.747 2393.41 331.403 2404.6 320.717C2415.8 310.03 2421.4 294.509 2421.4 274.153V242.093H2521.39V336.747H2616.81V426.057H2521.39V603.913C2521.39 617.653 2523.68 629.358 2528.26 639.027C2533.35 648.696 2540.99 656.074 2551.16 661.163C2561.85 666.252 2575.34 668.797 2591.62 668.797C2595.18 668.797 2599.25 668.542 2603.83 668.033C2608.92 667.524 2613.76 667.016 2618.34 666.507V752C2611.21 753.018 2603.07 754.036 2593.91 755.053C2584.75 756.071 2576.35 756.58 2568.72 756.58ZM2887.95 761.16C2845.2 761.16 2807.8 751.491 2775.74 732.153C2743.68 712.816 2718.74 686.608 2700.93 653.53C2683.12 620.452 2674.21 583.812 2674.21 543.61C2674.21 501.881 2683.12 464.987 2700.93 432.927C2719.25 400.358 2743.93 374.659 2774.97 355.83C2806.53 337.001 2841.64 327.587 2880.31 327.587C2912.88 327.587 2941.38 332.93 2965.81 343.617C2990.74 354.303 3011.86 369.061 3029.16 387.89C3046.47 406.719 3059.7 428.347 3068.86 452.773C3078.02 476.691 3082.6 502.644 3082.6 530.633C3082.6 537.758 3082.09 545.137 3081.07 552.77C3080.56 560.403 3079.29 567.019 3077.25 572.617H2756.65V496.283H3020.77L2973.44 532.16C2978.02 508.751 2976.75 487.887 2969.62 469.567C2963.01 451.247 2951.81 436.743 2936.04 426.057C2920.77 415.37 2902.2 410.027 2880.31 410.027C2859.45 410.027 2840.88 415.37 2824.59 426.057C2808.31 436.234 2795.84 451.501 2787.19 471.857C2779.05 491.703 2775.99 515.876 2778.03 544.373C2775.99 569.818 2779.3 592.463 2787.95 612.31C2797.11 631.648 2810.34 646.66 2827.64 657.347C2845.46 668.033 2865.81 673.377 2888.71 673.377C2911.61 673.377 2930.95 668.542 2946.72 658.873C2963.01 649.204 2975.73 636.228 2984.89 619.943L3065.8 659.637C3057.66 679.483 3044.94 697.04 3027.64 712.307C3010.34 727.573 2989.73 739.532 2965.81 748.183C2942.4 756.834 2916.45 761.16 2887.95 761.16ZM3158.4 752V336.747H3252.29V429.11L3244.66 415.37C3254.33 384.328 3269.34 362.7 3289.69 350.487C3310.56 338.273 3335.49 332.167 3364.5 332.167H3388.93V420.713H3353.05C3324.55 420.713 3301.65 429.619 3284.35 447.43C3267.05 464.732 3258.4 489.159 3258.4 520.71V752H3158.4Z" fill="black"/>
<path d="M109.078 670.847C48.8358 670.847 0 620.542 0 558.488V112.359C0 50.3047 48.8358 0 109.078 0C169.32 0 218.156 50.3047 218.156 112.359V558.488C218.156 620.542 169.32 670.847 109.078 670.847Z" fill="#F24E1E"/>
<path d="M32.2153 643.036C-10.3823 599.157 -10.3823 528.016 32.2153 484.137L303.013 205.194C345.611 161.316 414.675 161.316 457.273 205.194C499.87 249.073 499.87 320.215 457.273 364.093L186.475 643.036C143.877 686.915 74.8129 686.915 32.2153 643.036Z" fill="#4262FF"/>
<path d="M288.507 891.091C245.91 847.212 245.91 776.071 288.507 732.192L550.042 462.791C592.64 418.912 661.704 418.912 704.302 462.791C746.899 506.669 746.899 577.811 704.302 621.69L442.767 891.091C400.169 934.97 331.105 934.97 288.507 891.091Z" fill="#7C3AED"/>
<path d="M707.252 619.47C664.654 663.349 595.59 663.349 552.992 619.47L301.702 360.621C259.104 316.743 259.104 245.601 301.702 201.722C344.299 157.843 413.364 157.843 455.961 201.722L707.252 460.571C749.849 504.45 749.849 575.591 707.252 619.47Z" fill="#FFD02F"/>
</svg>
